<svg t="1775198004427" class="icon" viewBox="0 0 1024 1024" version="1.1" xmlns="http://www.w3.org/2000/svg" p-id="1768" width="200" height="200"><path d="M512 512m-512 0a512 512 0 1 0 1024 0 512 512 0 1 0-1024 0Z" fill="#2aa515" p-id="1769" data-spm-anchor-id="a313x.search_index.0.i0.5b643a81xINHOk" class=""></path><path d="M409.237333 525.162667c5.674667 63.722667 17.130667 198.4 17.130667 222.933333a54.912 54.912 0 0 1-54.442667 60.970667h-1.365333l-1.216-0.042667a58.453333 58.453333 0 0 1-54.186667-62.293333c0-19.157333 12.16-156.8 17.877334-222.784a37.184 37.184 0 0 0-15.061334-33.28 150.805333 150.805333 0 0 1-61.781333-129.450667c0-81.664 51.242667-147.882667 114.346667-147.882667 63.146667 0 114.432 66.218667 114.432 149.290667a150.613333 150.613333 0 0 1-60.842667 129.386667 36.970667 36.970667 0 0 0-14.890667 33.152zM728.128 213.333333c10.24 0 18.538667 8.32 18.538667 18.624v158.250667a111.829333 111.829333 0 0 1-57.728 98.026667 14.592 14.592 0 0 0-7.466667 14.421333l24.490667 222.826667c2.026667 45.504-30.122667 83.669333-70.421334 83.669333-40.32 0-72.448-38.186667-70.4-83.669333l25.92-222.250667a14.08 14.08 0 0 0-7.402666-14.122667 111.957333 111.957333 0 0 1-59.349334-98.901333v-158.250667a18.56 18.56 0 1 1 37.056 0v153.6a13.888 13.888 0 1 0 27.797334 0v-153.6a18.56 18.56 0 1 1 37.056 0v158.250667c0 5.12 4.16 9.301333 9.258666 9.301333a9.322667 9.322667 0 0 0 9.28-9.301333v-158.250667a18.56 18.56 0 1 1 37.056 0v153.6a13.888 13.888 0 1 0 27.797334 0v-153.6A18.56 18.56 0 0 1 728.106667 213.333333z" fill="#ffffff" p-id="1770" data-spm-anchor-id="a313x.search_index.0.i1.5b643a81xINHOk" class=""></path></svg>